HIERARCHY
ROOT Hips
{
	OFFSET 0.000000 71.427986 0.000000
	CHANNELS 6 Xposition Yposition Zposition Xrotation Yrotation Zrotation
	JOINT Pelvis
	{
		OFFSET 0.000000 0.000000 0.000000
		CHANNELS 3 Xrotation Yrotation Zrotation
		JOINT LeftUpLeg
		{
			OFFSET 6.797100 -2.508499 -1.318700
			CHANNELS 3 Xrotation Yrotation Zrotation
			JOINT LeftLeg
			{
				OFFSET 0.069008 -29.241863 0.690200
				CHANNELS 3 Xrotation Yrotation Zrotation
				JOINT LeftFoot
				{
					OFFSET -0.069008 -29.568123 -0.266800
					CHANNELS 3 Xrotation Yrotation Zrotation
					JOINT LeftToeBase
					{
						OFFSET 3.145500 -8.631000 16.059900
						CHANNELS 3 Xrotation Yrotation Zrotation
						End Site
						{
							OFFSET 0.000000 18.501587 0.000000
						}
					}
				}
			}
			JOINT Left_ShortSleeve
			{
				OFFSET 0.265923 -10.480953 1.153800
				CHANNELS 3 Xrotation Yrotation Zrotation
				End Site
				{
					OFFSET 1.725763 19.823879 0.000000
				}
			}
		}
		JOINT RightUpLeg
		{
			OFFSET -6.797100 -2.508499 -1.318700
			CHANNELS 3 Xrotation Yrotation Zrotation
			JOINT RightLeg
			{
				OFFSET -0.082453 -29.241932 0.688000
				CHANNELS 3 Xrotation Yrotation Zrotation
				JOINT RightFoot
				{
					OFFSET 0.082453 -29.568058 -0.264600
					CHANNELS 3 Xrotation Yrotation Zrotation
					JOINT RightToeBase
					{
						OFFSET -3.115300 -8.682800 16.113400
						CHANNELS 3 Xrotation Yrotation Zrotation
						End Site
						{
							OFFSET 0.000000 18.567114 0.000000
						}
					}
				}
			}
			JOINT Right_ShortSleeve
			{
				OFFSET -0.265923 -10.480953 1.153800
				CHANNELS 3 Xrotation Yrotation Zrotation
				End Site
				{
					OFFSET -1.725766 19.823910 0.000000
				}
			}
		}
	}
	JOINT Spine
	{
		OFFSET 0.000000 13.368103 0.470500
		CHANNELS 3 Xrotation Yrotation Zrotation
		JOINT Spine1
		{
			OFFSET 0.147000 13.837402 0.538800
			CHANNELS 3 Xrotation Yrotation Zrotation
			JOINT Spine2
			{
				OFFSET 0.168000 16.242897 -1.435500
				CHANNELS 3 Xrotation Yrotation Zrotation
				JOINT Neck
				{
					OFFSET 0.217200 18.631500 -1.679100
					CHANNELS 3 Xrotation Yrotation Zrotation
					JOINT Head
					{
						OFFSET 0.000000 6.599396 1.385900
						CHANNELS 3 Xrotation Yrotation Zrotation
						JOINT Hat
						{
							OFFSET -0.532200 27.220596 -10.096100
							CHANNELS 3 Xrotation Yrotation Zrotation
							End Site
							{
								OFFSET 0.000000 22.029861 0.000000
							}
						}
						JOINT HairD
						{
							OFFSET -10.777400 17.437393 -1.325900
							CHANNELS 3 Xrotation Yrotation Zrotation
							JOINT HairD1
							{
								OFFSET -3.290299 -11.051193 1.062200
								CHANNELS 3 Xrotation Yrotation Zrotation
								End Site
								{
									OFFSET 0.000000 11.579437 0.000000
								}
							}
						}
						JOINT HairB
						{
							OFFSET -10.777400 17.437393 1.467900
							CHANNELS 3 Xrotation Yrotation Zrotation
							JOINT HairB1
							{
								OFFSET -1.561200 -12.956299 3.590200
								CHANNELS 3 Xrotation Yrotation Zrotation
								End Site
								{
									OFFSET 0.000000 13.534866 0.000000
								}
							}
						}
						JOINT HairA
						{
							OFFSET 9.713100 17.437393 1.467900
							CHANNELS 3 Xrotation Yrotation Zrotation
							JOINT HairA1
							{
								OFFSET 1.561200 -12.956299 3.590200
								CHANNELS 3 Xrotation Yrotation Zrotation
								End Site
								{
									OFFSET 0.000000 13.534866 0.000000
								}
							}
						}
						JOINT HairC
						{
							OFFSET 9.713100 17.437393 -1.325900
							CHANNELS 3 Xrotation Yrotation Zrotation
							JOINT HairC1
							{
								OFFSET 3.290300 -11.051193 1.062200
								CHANNELS 3 Xrotation Yrotation Zrotation
								End Site
								{
									OFFSET 0.000000 11.579437 0.000000
								}
							}
						}
					}
				}
				JOINT LeftShoulder
				{
					OFFSET 5.101800 15.108002 -2.763700
					CHANNELS 3 Xrotation Yrotation Zrotation
					JOINT LeftArm
					{
						OFFSET 9.825497 2.506317 -1.597400
						CHANNELS 3 Xrotation Yrotation Zrotation
						JOINT LeftForeArm
						{
							OFFSET 21.966244 0.000000 0.000000
							CHANNELS 3 Xrotation Yrotation Zrotation
							JOINT LeftHand
							{
								OFFSET 33.879036 0.000000 0.000000
								CHANNELS 3 Xrotation Yrotation Zrotation
								JOINT LeftHandThumb1
								{
									OFFSET 6.715286 -2.359680 3.363841
									CHANNELS 3 Xrotation Yrotation Zrotation
									JOINT LeftHandThumb2
									{
										OFFSET 2.507072 -1.447464 1.447461
										CHANNELS 3 Xrotation Yrotation Zrotation
										JOINT LeftHandThumb3
										{
											OFFSET 2.898338 -1.673355 1.673357
											CHANNELS 3 Xrotation Yrotation Zrotation
											End Site
											{
												OFFSET -0.295959 3.727692 -0.131651
											}
										}
									}
								}
								JOINT LeftHandIndex1
								{
									OFFSET 14.190811 -0.254547 3.840278
									CHANNELS 3 Xrotation Yrotation Zrotation
									JOINT LeftHandIndex2
									{
										OFFSET 3.551727 0.000000 -0.000000
										CHANNELS 3 Xrotation Yrotation Zrotation
										JOINT LeftHandIndex3
										{
											OFFSET 2.894196 0.000000 0.000000
											CHANNELS 3 Xrotation Yrotation Zrotation
											End Site
											{
												OFFSET -1.000603 2.690872 0.366626
											}
										}
									}
								}
								JOINT LeftHandMiddle1
								{
									OFFSET 13.776489 0.000000 0.000000
									CHANNELS 3 Xrotation Yrotation Zrotation
									JOINT LeftHandMiddle2
									{
										OFFSET 3.438232 0.000000 0.000000
										CHANNELS 3 Xrotation Yrotation Zrotation
										JOINT LeftHandMiddle3
										{
											OFFSET 3.691551 0.000000 0.000000
											CHANNELS 3 Xrotation Yrotation Zrotation
											End Site
											{
												OFFSET -1.082298 3.499527 0.457670
											}
										}
									}
								}
								JOINT LeftHandRing1
								{
									OFFSET 13.966164 -0.268127 -3.067488
									CHANNELS 3 Xrotation Yrotation Zrotation
									JOINT LeftHandRing2
									{
										OFFSET 3.162567 0.000000 0.000000
										CHANNELS 3 Xrotation Yrotation Zrotation
										JOINT LeftHandRing3
										{
											OFFSET 3.324348 0.000000 0.000000
											CHANNELS 3 Xrotation Yrotation Zrotation
											End Site
											{
												OFFSET -0.861900 3.184998 0.405154
											}
										}
									}
								}
								JOINT LeftHandPinky1
								{
									OFFSET 13.131393 -0.168503 -5.746925
									CHANNELS 3 Xrotation Yrotation Zrotation
									JOINT LeftHandPinky2
									{
										OFFSET 2.849182 0.000000 0.000000
										CHANNELS 3 Xrotation Yrotation Zrotation
										JOINT LeftHandPinky3
										{
											OFFSET 2.805038 0.000000 0.000000
											CHANNELS 3 Xrotation Yrotation Zrotation
											End Site
											{
												OFFSET -0.882500 2.642609 0.325652
											}
										}
									}
								}
							}
							JOINT Left_Sleeve
							{
								OFFSET 6.592125 -0.646545 0.805568
								CHANNELS 3 Xrotation Yrotation Zrotation
								End Site
								{
									OFFSET -0.000179 20.275787 -0.000000
								}
							}
						}
					}
				}
				JOINT RightShoulder
				{
					OFFSET -5.731700 15.108002 -2.763700
					CHANNELS 3 Xrotation Yrotation Zrotation
					JOINT RightArm
					{
						OFFSET -9.825497 2.506317 -1.597400
						CHANNELS 3 Xrotation Yrotation Zrotation
						JOINT RightForeArm
						{
							OFFSET -21.966242 0.000000 0.000000
							CHANNELS 3 Xrotation Yrotation Zrotation
							JOINT RightHand
							{
								OFFSET -33.879032 0.000000 0.000000
								CHANNELS 3 Xrotation Yrotation Zrotation
								JOINT RightHandThumb1
								{
									OFFSET -6.715286 -2.359680 3.363841
									CHANNELS 3 Xrotation Yrotation Zrotation
									JOINT RightHandThumb2
									{
										OFFSET -2.507072 -1.447464 1.447461
										CHANNELS 3 Xrotation Yrotation Zrotation
										JOINT RightHandThumb3
										{
											OFFSET -2.898338 -1.673355 1.673357
											CHANNELS 3 Xrotation Yrotation Zrotation
											End Site
											{
												OFFSET 0.295959 3.727692 -0.131651
											}
										}
									}
								}
								JOINT RightHandIndex1
								{
									OFFSET -14.190811 -0.254547 3.840278
									CHANNELS 3 Xrotation Yrotation Zrotation
									JOINT RightHandIndex2
									{
										OFFSET -3.551727 0.000000 -0.000000
										CHANNELS 3 Xrotation Yrotation Zrotation
										JOINT RightHandIndex3
										{
											OFFSET -2.894196 0.000000 0.000000
											CHANNELS 3 Xrotation Yrotation Zrotation
											End Site
											{
												OFFSET 1.000603 2.690872 0.366626
											}
										}
									}
								}
								JOINT RightHandMiddle1
								{
									OFFSET -13.776489 0.000000 0.000000
									CHANNELS 3 Xrotation Yrotation Zrotation
									JOINT RightHandMiddle2
									{
										OFFSET -3.438232 0.000000 0.000000
										CHANNELS 3 Xrotation Yrotation Zrotation
										JOINT RightHandMiddle3
										{
											OFFSET -3.691551 0.000000 0.000000
											CHANNELS 3 Xrotation Yrotation Zrotation
											End Site
											{
												OFFSET 1.082298 3.499527 0.457670
											}
										}
									}
								}
								JOINT RightHandRing1
								{
									OFFSET -13.966164 -0.268127 -3.067488
									CHANNELS 3 Xrotation Yrotation Zrotation
									JOINT RightHandRing2
									{
										OFFSET -3.162567 0.000000 0.000000
										CHANNELS 3 Xrotation Yrotation Zrotation
										JOINT RightHandRing3
										{
											OFFSET -3.324348 0.000000 0.000000
											CHANNELS 3 Xrotation Yrotation Zrotation
											End Site
											{
												OFFSET 0.861900 3.184998 0.405154
											}
										}
									}
								}
								JOINT RightHandPinky1
								{
									OFFSET -13.131393 -0.168503 -5.746925
									CHANNELS 3 Xrotation Yrotation Zrotation
									JOINT RightHandPinky2
									{
										OFFSET -2.849182 0.000000 0.000000
										CHANNELS 3 Xrotation Yrotation Zrotation
										JOINT RightHandPinky3
										{
											OFFSET -2.805038 0.000000 0.000000
											CHANNELS 3 Xrotation Yrotation Zrotation
											End Site
											{
												OFFSET 0.882500 2.642609 0.325652
											}
										}
									}
								}
							}
							JOINT Right_Sleeve
							{
								OFFSET -6.592125 -0.646545 0.805568
								CHANNELS 3 Xrotation Yrotation Zrotation
								End Site
								{
									OFFSET 0.000179 20.275787 -0.000000
								}
							}
						}
					}
				}
				JOINT Bind_Right_JacketString
				{
					OFFSET -3.534800 11.969597 7.200700
					CHANNELS 3 Xrotation Yrotation Zrotation
					JOINT Bind_Right_JacketString1
					{
						OFFSET -0.319900 -6.102600 2.794100
						CHANNELS 3 Xrotation Yrotation Zrotation
						End Site
						{
							OFFSET 0.000000 6.719452 0.000000
						}
					}
				}
				JOINT Bind_Left_JacketString
				{
					OFFSET 2.904800 11.969597 7.200700
					CHANNELS 3 Xrotation Yrotation Zrotation
					JOINT Bind_Left_JacketString1
					{
						OFFSET 0.364800 -5.904503 3.186800
						CHANNELS 3 Xrotation Yrotation Zrotation
						End Site
						{
							OFFSET 0.000000 6.719513 0.000000
						}
					}
				}
				JOINT HairE
				{
					OFFSET 5.915200 17.612701 -11.592200
					CHANNELS 3 Xrotation Yrotation Zrotation
					JOINT HairE1
					{
						OFFSET 0.289200 -7.171898 -1.284500
						CHANNELS 3 Xrotation Yrotation Zrotation
						End Site
						{
							OFFSET 0.000000 7.291756 0.000000
						}
					}
				}
				JOINT HairF
				{
					OFFSET -0.864800 17.612701 -11.592200
					CHANNELS 3 Xrotation Yrotation Zrotation
					JOINT HairF1
					{
						OFFSET 0.000000 -14.087097 -2.127501
						CHANNELS 3 Xrotation Yrotation Zrotation
						End Site
						{
							OFFSET 0.000000 14.246841 0.000000
						}
					}
				}
				JOINT HairG
				{
					OFFSET -8.087700 17.612701 -11.592200
					CHANNELS 3 Xrotation Yrotation Zrotation
					JOINT HairG1
					{
						OFFSET -0.293600 -6.081398 -0.910100
						CHANNELS 3 Xrotation Yrotation Zrotation
						End Site
						{
							OFFSET 0.000000 6.156120 0.000000
						}
					}
				}
			}
		}
	}
	JOINT Pouch
	{
		OFFSET 0.000000 4.394501 10.847300
		CHANNELS 3 Xrotation Yrotation Zrotation
		End Site
		{
			OFFSET 0.000000 21.880577 0.000000
		}
	}
	JOINT Bag
	{
		OFFSET -13.229000 4.813004 -0.593300
		CHANNELS 3 Xrotation Yrotation Zrotation
		End Site
		{
			OFFSET 0.000000 21.880577 0.000000
		}
	}
	JOINT OccupyGuyFacialAnim_Joint
	{
		OFFSET 1.000000 -70.206398 -1.655000
		CHANNELS 3 Xrotation Yrotation Zrotation
		End Site
		{
			OFFSET 0.000000 21.880577 0.000000
		}
	}
}
MOTION
Frames: 4
Frame Time: 0.033333
0.282921 58.985573 1.380227 7.104968 1.403335 -12.080054 0.000000 0.000000 0.000000 -50.475812 14.828025 -6.702804 85.789485 -2.569312 -0.147210 -17.383830 -1.261664 9.075132 0.000002 -0.000000 -0.000000 0.000004 0.000003 -0.000003 -30.249883 -0.376042 -10.158173 57.178007 9.847077 0.533051 -33.878582 -2.310169 15.042110 0.000000 0.000000 -0.000000 -0.000002 -0.000000 -0.000001 2.326408 1.030763 4.335133 2.254050 -14.096130 5.434274 2.504768 0.006858 7.868499 6.289634 5.421249 -4.908952 -11.393615 17.889732 5.359089 0.000001 0.000001 0.000000 0.000001 0.000001 0.000000 0.000001 0.000001 0.000001 0.000001 0.000001 0.000001 -0.000000 0.000001 0.000000 0.000001 0.000001 0.000001 -0.000000 0.000001 0.000000 0.000001 0.000001 0.000000 0.000001 0.000001 0.000000 3.544252 4.756009 -11.623016 -54.038869 -33.116425 -50.381576 0.000116 -81.882330 0.000098 -58.768389 25.992633 38.870313 -14.557493 10.837931 12.229948 0.749522 -4.258040 13.305432 0.000000 0.000001 -0.000001 -0.809536 2.578179 -31.496434 3.095889 5.163765 -61.866959 0.000001 0.000000 -0.000000 -2.430847 1.729225 -41.460939 2.952357 5.084726 -60.259931 0.000001 -0.000000 -0.000001 -6.054134 -0.166614 -49.857563 3.046275 5.137030 -61.313952 -0.000002 0.000001 0.000001 -8.298307 -6.522648 -38.520122 2.848787 5.024388 -59.084401 -0.000000 -0.000000 -0.000001 0.000001 -0.000002 -0.000001 -14.733698 2.115971 -4.463086 72.337536 138.834072 -52.653478 -0.000001 29.080712 0.000007 -49.752454 -7.371301 -31.498749 8.377133 -4.904133 11.021996 21.620202 -18.183897 -18.379223 0.000002 0.000000 -0.000000 0.558923 -4.406579 25.436668 1.653046 -3.560338 49.799100 0.000001 -0.000000 0.000002 10.969815 -12.875584 52.800818 6.387594 -4.324394 111.833658 0.000002 -0.000000 -0.000001 3.705076 -7.151290 57.622433 5.328202 -4.608673 98.293409 0.000000 -0.000000 0.000001 0.474828 -5.172985 58.987652 3.194319 -4.421928 71.674154 0.000000 0.000001 -0.000003 -0.000001 -0.000000 0.000001 -0.000001 -0.000000 -0.000000 0.000000 -0.000001 0.000000 -0.000001 -0.000000 -0.000000 -0.000001 -0.000000 -0.000000 -0.000001 -0.000000 -0.000000 0.000000 -0.000001 0.000000 -0.000001 -0.000000 -0.000000 -0.000001 -0.000000 -0.000000 -0.000001 -0.000000 -0.000000 0.000000 -0.000001 0.000000 0.000000 0.000000 0.000000 0.000000 0.000000 0.000000 0.000000 0.000000 0.000000 
0.792635 60.722275 8.688764 8.006309 3.457182 -12.278854 -0.000000 0.000000 -0.000001 -56.354948 15.396498 -4.128116 71.849328 -5.762820 -0.295108 -14.713570 0.648651 0.567113 0.000001 -0.000000 0.000002 -0.000002 -0.000001 0.000000 -20.173078 -3.927490 -9.611849 51.118710 5.696498 0.261196 -33.983975 -3.781274 14.556458 -0.000000 -0.000000 -0.000000 0.000000 0.000000 -0.000000 2.112392 1.882486 4.442216 2.022948 -13.452555 5.115943 2.350830 0.651095 7.559924 6.736627 5.084995 -4.741881 -11.926250 16.754548 5.518690 0.000001 -0.000000 -0.000000 0.000001 -0.000000 -0.000000 0.000001 -0.000000 -0.000000 0.000001 -0.000000 -0.000001 0.000001 -0.000000 -0.000000 0.000001 -0.000000 -0.000001 0.000001 -0.000000 -0.000000 0.000001 -0.000000 -0.000000 0.000001 -0.000000 -0.000000 3.546644 5.090770 -11.681540 -54.908714 -35.297178 -49.697361 0.000284 -80.555347 0.000288 -58.959497 26.559749 38.191740 -14.557493 10.837934 12.229949 0.749521 -4.258037 13.305435 0.000002 -0.000002 -0.000002 -0.809536 2.578179 -31.496437 3.095889 5.163765 -61.866959 0.000002 0.000000 0.000002 -2.430849 1.729225 -41.460939 2.952357 5.084726 -60.259931 0.000001 -0.000000 0.000001 -6.054136 -0.166614 -49.857567 3.046275 5.137032 -61.313959 -0.000001 -0.000000 -0.000000 -8.298306 -6.522646 -38.520122 2.848789 5.024387 -59.084401 -0.000001 -0.000001 -0.000001 0.000001 0.000002 -0.000002 -14.986403 4.407666 -3.824556 77.323663 138.580659 -57.201065 -0.000008 32.137744 0.000012 -49.481319 -8.015646 -33.311857 8.377133 -4.904134 11.021992 21.620204 -18.183895 -18.379214 0.000001 0.000000 -0.000000 0.558923 -4.406579 25.436664 1.653047 -3.560338 49.799100 -0.000001 -0.000000 0.000000 10.969817 -12.875583 52.800822 6.387593 -4.324393 111.833658 0.000001 0.000000 0.000001 3.705076 -7.151291 57.622433 5.328201 -4.608673 98.293416 0.000001 -0.000001 0.000001 0.474830 -5.172983 58.987658 3.194317 -4.421927 71.674154 -0.000000 -0.000001 0.000000 0.000000 -0.000003 -0.000001 -0.000000 0.000001 -0.000000 -0.000000 -0.000000 0.000000 -0.000000 0.000001 -0.000000 -0.000000 0.000001 -0.000000 -0.000000 0.000001 -0.000000 -0.000000 -0.000000 0.000000 -0.000000 0.000001 -0.000000 -0.000000 0.000001 -0.000000 -0.000000 0.000001 -0.000000 -0.000000 -0.000000 0.000000 -0.000000 0.000000 -0.000001 -0.000000 0.000000 -0.000001 -0.000000 0.000000 -0.000001 
1.598582 62.635918 16.454638 8.170890 5.360175 -12.920655 -0.000000 0.000001 0.000001 -55.622735 14.678693 -4.041286 52.742557 -4.657713 -0.239184 -15.110204 1.753033 -3.176577 0.000001 0.000000 -0.000002 -0.000000 -0.000003 0.000000 -9.612281 -6.493285 -7.815619 44.248797 -0.953612 0.040430 -28.995359 -3.541616 14.800663 -0.000001 -0.000000 0.000000 -0.000000 -0.000000 -0.000000 1.939409 2.787748 4.535115 1.857744 -13.040913 4.940587 2.228718 1.058372 7.390998 7.090632 4.870455 -4.594770 -11.816241 15.860671 5.882714 -0.000001 0.000001 0.000000 -0.000001 0.000001 0.000000 -0.000001 0.000001 0.000000 -0.000001 0.000001 -0.000000 -0.000001 0.000001 0.000001 -0.000001 0.000001 -0.000000 -0.000001 0.000001 0.000001 -0.000001 0.000001 0.000000 -0.000001 0.000001 0.000000 3.652127 5.162531 -12.007356 -55.098163 -36.823486 -48.923658 -0.000203 -79.906800 -0.000183 -58.380079 27.023143 37.412621 -14.557491 10.837931 12.229949 0.749521 -4.258036 13.305438 0.000000 -0.000002 0.000001 -0.809536 2.578178 -31.496434 3.095889 5.163766 -61.866959 0.000001 0.000001 -0.000002 -2.430846 1.729225 -41.460939 2.952359 5.084726 -60.259938 0.000001 0.000000 -0.000001 -6.054134 -0.166614 -49.857570 3.046274 5.137032 -61.313952 -0.000001 -0.000001 -0.000002 -8.298306 -6.522648 -38.520126 2.848788 5.024386 -59.084401 -0.000000 -0.000001 0.000003 -0.000003 0.000003 -0.000003 -15.356354 6.641375 -3.252482 82.986013 138.426105 -61.668036 -0.000027 35.784987 0.000026 -48.921476 -8.361688 -35.176191 8.377133 -4.904134 11.021995 21.620201 -18.183897 -18.379223 -0.000002 0.000000 0.000000 0.558922 -4.406580 25.436668 1.653047 -3.560338 49.799100 -0.000000 0.000001 0.000000 10.969816 -12.875586 52.800822 6.387593 -4.324393 111.833658 -0.000000 0.000000 -0.000001 3.705077 -7.151292 57.622433 5.328202 -4.608674 98.293416 -0.000000 -0.000001 -0.000002 0.474829 -5.172985 58.987658 3.194318 -4.421930 71.674154 -0.000000 0.000000 0.000002 0.000001 -0.000000 -0.000001 -0.000001 -0.000000 0.000000 -0.000001 0.000000 0.000000 -0.000001 -0.000000 0.000000 -0.000001 -0.000000 0.000000 -0.000001 -0.000000 0.000000 -0.000001 0.000000 0.000000 -0.000001 -0.000000 0.000000 -0.000001 -0.000000 0.000000 -0.000001 -0.000000 0.000000 -0.000001 0.000000 0.000000 -0.000000 0.000001 0.000001 -0.000000 0.000001 0.000001 -0.000000 0.000001 0.000001 
2.504298 63.977127 24.436953 8.104834 6.777302 -13.952937 -0.000000 -0.000000 -0.000000 -52.344937 12.244039 -5.240452 33.854024 0.746300 0.047894 -14.788820 1.779536 -1.305151 0.000000 0.000000 0.000000 -0.000001 -0.000004 -0.000000 -5.246928 -5.386615 -8.127075 46.714546 0.749069 0.047700 -14.074922 -2.686721 16.936219 -0.000002 -0.000000 0.000000 0.000000 0.000000 -0.000001 1.798469 3.436082 4.500610 1.705565 -12.837090 4.925614 2.082218 1.255776 7.375947 7.072494 4.835547 -4.311665 -11.381762 15.659664 6.327026 0.000000 0.000002 -0.000000 0.000000 0.000002 -0.000000 0.000000 0.000002 -0.000000 0.000000 0.000002 -0.000000 0.000001 0.000002 -0.000000 0.000000 0.000002 -0.000000 0.000001 0.000002 -0.000000 0.000000 0.000002 -0.000000 0.000000 0.000002 -0.000000 3.831118 4.921422 -12.504805 -54.863372 -37.152735 -48.228632 0.000065 -79.931532 0.000038 -57.765580 26.578759 36.549022 -14.557493 10.837935 12.229951 0.749523 -4.258041 13.305436 0.000000 -0.000002 -0.000003 -0.809536 2.578178 -31.496437 3.095889 5.163764 -61.866959 0.000001 0.000001 -0.000003 -2.430847 1.729224 -41.460939 2.952358 5.084725 -60.259931 0.000000 0.000001 -0.000001 -6.054134 -0.166615 -49.857567 3.046275 5.137031 -61.313959 0.000000 -0.000001 -0.000001 -8.298307 -6.522648 -38.520122 2.848788 5.024388 -59.084401 -0.000001 -0.000002 0.000003 -0.000004 0.000001 -0.000001 -15.725903 9.254535 -2.234143 88.114782 137.484782 -65.996013 -0.000017 39.380405 0.000013 -47.685430 -9.062899 -37.094877 8.377133 -4.904133 11.021992 21.620199 -18.183898 -18.379221 -0.000003 -0.000001 0.000001 0.558924 -4.406578 25.436666 1.653047 -3.560339 49.799100 -0.000001 0.000001 0.000000 10.969817 -12.875585 52.800822 6.387595 -4.324394 111.833658 0.000000 -0.000000 -0.000001 3.705078 -7.151290 57.622440 5.328201 -4.608672 98.293409 -0.000000 0.000000 -0.000002 0.474829 -5.172983 58.987658 3.194317 -4.421926 71.674161 0.000001 0.000000 -0.000005 0.000002 -0.000002 -0.000001 0.000000 0.000000 -0.000000 0.000000 -0.000000 0.000000 0.000000 0.000000 -0.000000 0.000000 0.000000 -0.000000 0.000000 0.000000 -0.000000 0.000000 -0.000000 0.000000 0.000000 0.000000 -0.000000 0.000000 0.000000 -0.000000 0.000000 0.000000 -0.000000 0.000000 -0.000000 0.000000 -0.000000 -0.000000 -0.000000 -0.000000 -0.000000 -0.000000 -0.000000 -0.000000 -0.000000 
